<?xml version="1.0" standalone="no"?>
<!DOCTYPE svg PUBLIC "-//W3C//DTD SVG 20010904//EN" "http://www.w3.org/TR/2001/REC-SVG-20010904/DTD/svg10.dtd">
<svg 
	version="1.0" 
	xmlns="http://www.w3.org/2000/svg" 
	width="339.000000pt" 
	height="339.000000pt"
	viewBox="0 0 339.000000 339.000000" 
	preserveAspectRatio="xMidYMid meet"
>
	<metadata>
		Created by potrace 1.14, written by Peter Selinger 2001-2017
	</metadata>
	<g transform="translate(0.000000,339.000000) scale(0.100000,-0.100000)" fill="#000000" stroke="none">
		<path d="M1428 3246 c-71 -26 -140 -103 -227 -258 -70 -125 -143 -397 -124 -467 6 -23 68 -55 90 -47 7 3 13 2 13 -2 0 -5 -15 -13 -33 -20 -92 -33 -233 -238 -298 -432 -29 -88 -31 -101 -25 -182 6 -73 14 -102 47 -174 50 -110 112 -194 168 -230 25 -16 49 -32 54 -35 8 -6 -30 -119 -74 -224 -8 -20 -51 -151 -69 -210 -43 -148 -51 -396 -15 -470 l20 -40 65 0 c88 0 132 -31 178 -126 35 -73 67 -102 120 -112 27 -6 38 -2 58 19 23 22 25 32 22 84 -2 39 1 60 8 60 6 0 33 -3 59 -7 43 -5 49 -10 62 -42 37 -90 107 -143 158 -119 27 12 55 54 55 82 0 12 13 15 68 13 62 -2 67 0 70 20 2 12 -6 40 -18 63 l-21 41 25 29 c13 16 26 34 28 41 3 8 14 8 38 2 89 -23 92 8 15 138 -34 57 -107 192 -163 300 -55 107 -109 209 -118 226 -28 48 -11 60 94 65 77 3 97 8 175 45 207 99 339 302 353 545 7 141 8 143 62 179 26 18 49 36 50 41 7 17 31 7 78 -32 98 -82 121 -70 171 89 l38 118 35 -28 c65 -51 148 -57 212 -15 83 55 89 248 12 402 -27 54 -65 102 -185 237 -41 47 -101 123 -132 169 -62 92 -83 109 -175 132 -117 30 -184 14 -230 -54 -22 -32 -23 -42 -19 -125 3 -49 11 -133 18 -185 19 -133 17 -197 -9 -246 -26 -51 -94 -120 -145 -146 l-38 -19 -39 34 c-21 19 -67 49 -104 66 -36 18 -66 36 -66 40 0 4 9 16 20 26 26 24 43 80 37 122 -3 19 -26 67 -50 106 -24 40 -60 113 -79 162 -19 50 -50 130 -69 178 -41 107 -85 156 -156 174 -57 15 -49 15 -95 -1z m237 -285 l32 -97 -18 -36 c-12 -24 -33 -43 -62 -57 -73 -35 -75 -33 -56 63 8 40 9 60 2 67 -10 10 -19 -20 -48 -158 -6 -29 -10 -32 -31 -27 -30 8 -34 -20 -4 -36 20 -11 27 -35 12 -44 -5 -3 -26 0 -48 6 -21 6 -50 10 -64 9 -39 -2 -192 -42 -223 -58 -16 -8 -30 -13 -31 -11 -9 11 18 68 34 73 25 8 26 25 1 32 -17 4 -18 8 -6 51 19 70 39 119 79 202 59 119 55 116 119 96 49 -15 140 -23 177 -14 11 2 16 -7 18 -34 4 -54 22 -47 19 6 -1 35 3 50 23 71 29 31 29 32 75 -104z m978 -83 c30 -46 91 -123 136 -172 45 -50 80 -97 79 -105 -2 -8 -32 -36 -67 -63 -73 -56 -81 -54 -81 30 0 36 -4 54 -14 58 -8 3 -18 20 -21 37 -10 47 -88 232 -93 219 -2 -6 12 -47 31 -91 74 -169 80 -248 36 -459 -19 -88 -38 -146 -39 -114 0 6 -7 12 -15 12 -19 0 -19 -29 -1 -56 10 -14 12 -31 7 -54 l-7 -35 -27 58 c-59 130 -175 265 -265 311 -28 14 -31 20 -22 36 10 19 12 19 51 4 22 -9 43 -14 46 -10 11 10 -19 36 -51 44 -27 7 -31 13 -34 48 -1 21 -9 103 -18 182 -9 79 -14 145 -12 147 2 2 26 -7 53 -20 56 -29 91 -31 163 -10 49 15 102 54 102 75 0 20 11 8 63 -72z m-1235 -290 c5 -7 12 -22 16 -34 6 -20 2 -22 -71 -29 -139 -13 -138 -13 -138 14 0 17 6 25 20 27 57 9 140 26 144 29 8 8 18 5 29 -7z m268 -143 c122 -28 219 -72 309 -141 22 -16 34 -21 37 -13 3 9 9 8 25 -2 30 -18 77 5 149 73 l54 51 38 -19 c46 -24 172 -150 172 -172 0 -21 -106 -131 -152 -160 -62 -39 -66 -48 -73 -167 -7 -139 -40 -250 -96 -323 -21 -29 -39 -55 -39 -57 0 -11 -101 -106 -137 -129 -46 -30 -169 -72 -238 -80 l-50 -7 -72 70 c-49 47 -97 82 -150 108 -72 36 -82 38 -168 38 -63 -1 -105 -6 -139 -19 l-48 -18 -45 43 c-86 83 -102 104 -128 169 -14 36 -30 97 -36 137 -10 61 -9 80 6 130 41 134 135 295 221 378 83 80 91 85 171 106 42 10 79 22 82 25 10 11 235 -5 307 -21z" />
		<path d="M1555 2930 c3 -5 8 -10 11 -10 2 0 4 5 4 10 0 6 -5 10 -11 10 -5 0 -7 -4 -4 -10z" />
		<path d="M1360 2726 c0 -15 48 -28 56 -15 9 15 -6 29 -32 29 -14 0 -24 -6 -24 -14z" />
		<path d="M1227 2714 c-4 -4 -7 -11 -7 -16 0 -13 50 -6 53 7 2 12 -36 19 -46 9z" />
		<path d="M2430 2436 c0 -8 13 -24 29 -35 53 -38 69 -22 25 23 -29 29 -54 34 -54 12z" />
		<path d="M2520 2337 c0 -14 41 -57 53 -57 15 0 6 28 -16 48 -27 25 -37 28 -37 9z" />
		<path d="M1155 2273 c-72 -38 -126 -119 -143 -214 -20 -106 17 -175 88 -165 46 7 78 32 122 97 73 105 88 229 33 276 -31 27 -58 28 -100 6z" />
		<path d="M1695 2171 c-116 -54 -179 -220 -123 -322 26 -47 73 -78 120 -79 35 0 106 55 131 103 29 57 44 176 27 217 -16 39 -77 100 -99 100 -9 0 -34 -9 -56 -19z" />
	</g>
</svg>